<?xml version="1.0" encoding="UTF-8" standalone="no"?> <svg width="512" height="512" viewBox="0 0 512 512" fill="none" xmlns="http://www.w3.org/2000/svg">
<path fill-rule="evenodd" clip-rule="evenodd" d="M128 32C74.9807 32 32 74.9807 32 128V384C32 437.019 74.9807 480 128 480H384C437.019 480 480 437.019 480 384V128C480 74.9807 437.019 32 384 32H128ZM269.622 96.9066C254.892 94.9374 239.919 96.1852 225.712 100.561C211.506 104.937 198.41 112.334 187.292 122.235C176.174 132.134 167.291 144.307 161.214 157.926C155.137 171.544 152 186.307 152 201.231C152 214.486 162.745 225.231 176 225.231C189.255 225.231 200 214.486 200 201.231C200 193.029 201.725 184.933 205.048 177.486C208.37 170.041 213.207 163.43 219.213 158.082C225.218 152.735 232.254 148.772 239.842 146.434C247.43 144.097 255.412 143.434 263.262 144.483C271.113 145.533 278.671 148.274 285.432 152.543C292.194 156.812 298.009 162.517 302.469 169.294C306.93 176.073 309.927 183.763 311.243 191.85C311.995 196.478 312.186 201.17 311.82 205.821C311.809 205.959 311.749 206.465 311.126 207.398C310.46 208.397 309.273 209.673 307.469 210.92L259.598 244.024C242.315 255.976 232 274.987 232 296C232 309.255 242.745 320 256 320C269.255 320 280 309.255 280 296C280 290.747 282.579 286.492 286.9 283.504L334.77 250.4C346.495 242.292 358.186 228.458 359.671 209.59C360.338 201.121 359.991 192.577 358.62 184.147C356.225 169.418 350.758 155.358 342.566 142.908C334.373 130.458 323.638 119.899 311.059 111.956C298.479 104.013 284.352 98.8756 269.622 96.9066ZM256 416C273.673 416 288 401.673 288 384C288 366.327 273.673 352 256 352C238.327 352 224 366.327 224 384C224 401.673 238.327 416 256 416Z" fill="black"/>
</svg>
